<mxfile host="app.diagrams.net" agent="Mozilla/5.0 (Macintosh; Intel Mac OS X 10_15_7) AppleWebKit/537.36 (KHTML, like Gecko) Chrome/135.0.0.0 Safari/537.36" version="26.2.14">
  <diagram name="Page-1" id="o-UW_eep7wMkWQ6p2Eac">
    <mxGraphModel dx="1198" dy="778" grid="1" gridSize="10" guides="1" tooltips="1" connect="1" arrows="1" fold="1" page="1" pageScale="1" pageWidth="827" pageHeight="1169" math="0" shadow="0">
      <root>
        <mxCell id="0" />
        <mxCell id="1" parent="0" />
        <mxCell id="yNea2SyTlovEkYiXTrdP-5" value="&lt;font style=&quot;font-size: 20px;&quot;&gt;Inicjalizacja rozszerzeń&lt;/font&gt;" style="rounded=0;whiteSpace=wrap;html=1;fillColor=#d5e8d4;strokeColor=#82b366;" vertex="1" parent="1">
          <mxGeometry x="40" y="360" width="120" height="80" as="geometry" />
        </mxCell>
        <mxCell id="yNea2SyTlovEkYiXTrdP-14" value="&lt;font style=&quot;font-size: 16px;&quot;&gt;Inicjalizacja środowiska wykonawczego&lt;/font&gt;" style="rounded=0;whiteSpace=wrap;html=1;fillColor=#e1d5e7;strokeColor=#9673a6;" vertex="1" parent="1">
          <mxGeometry x="160" y="360" width="120" height="80" as="geometry" />
        </mxCell>
        <mxCell id="yNea2SyTlovEkYiXTrdP-20" style="edgeStyle=orthogonalEdgeStyle;rounded=0;orthogonalLoop=1;jettySize=auto;html=1;entryX=0;entryY=0.5;entryDx=0;entryDy=0;" edge="1" parent="1" source="yNea2SyTlovEkYiXTrdP-15" target="yNea2SyTlovEkYiXTrdP-19">
          <mxGeometry relative="1" as="geometry" />
        </mxCell>
        <mxCell id="yNea2SyTlovEkYiXTrdP-15" value="&lt;font style=&quot;font-size: 20px;&quot;&gt;Inicjalizacja funkcji&lt;/font&gt;" style="rounded=0;whiteSpace=wrap;html=1;fillColor=#fff2cc;strokeColor=#d6b656;" vertex="1" parent="1">
          <mxGeometry x="280" y="360" width="120" height="80" as="geometry" />
        </mxCell>
        <mxCell id="yNea2SyTlovEkYiXTrdP-22" style="edgeStyle=orthogonalEdgeStyle;rounded=0;orthogonalLoop=1;jettySize=auto;html=1;entryX=0;entryY=0.5;entryDx=0;entryDy=0;" edge="1" parent="1" source="yNea2SyTlovEkYiXTrdP-34" target="yNea2SyTlovEkYiXTrdP-21">
          <mxGeometry relative="1" as="geometry" />
        </mxCell>
        <mxCell id="yNea2SyTlovEkYiXTrdP-19" value="&lt;font style=&quot;font-size: 20px;&quot;&gt;Wywołanie funkcji&lt;/font&gt;" style="rounded=0;whiteSpace=wrap;html=1;fillColor=#fff2cc;strokeColor=#d6b656;" vertex="1" parent="1">
          <mxGeometry x="440" y="360" width="120" height="80" as="geometry" />
        </mxCell>
        <mxCell id="yNea2SyTlovEkYiXTrdP-24" style="edgeStyle=orthogonalEdgeStyle;rounded=0;orthogonalLoop=1;jettySize=auto;html=1;entryX=0;entryY=0.5;entryDx=0;entryDy=0;" edge="1" parent="1" source="yNea2SyTlovEkYiXTrdP-21" target="yNea2SyTlovEkYiXTrdP-23">
          <mxGeometry relative="1" as="geometry" />
        </mxCell>
        <mxCell id="yNea2SyTlovEkYiXTrdP-21" value="&lt;span style=&quot;font-size: 20px;&quot;&gt;Wywołanie funkcji&lt;/span&gt;" style="rounded=0;whiteSpace=wrap;html=1;fillColor=#fff2cc;strokeColor=#d6b656;" vertex="1" parent="1">
          <mxGeometry x="720" y="360" width="120" height="80" as="geometry" />
        </mxCell>
        <mxCell id="yNea2SyTlovEkYiXTrdP-23" value="&lt;font style=&quot;font-size: 16px;&quot;&gt;Wyłączenie środowiska wykonawczego&lt;/font&gt;" style="rounded=0;whiteSpace=wrap;html=1;fillColor=#e1d5e7;strokeColor=#9673a6;" vertex="1" parent="1">
          <mxGeometry x="880" y="360" width="120" height="80" as="geometry" />
        </mxCell>
        <mxCell id="yNea2SyTlovEkYiXTrdP-25" value="&lt;font style=&quot;font-size: 20px;&quot;&gt;Wyłączenie rozszerzeń&lt;/font&gt;" style="rounded=0;whiteSpace=wrap;html=1;fillColor=#d5e8d4;strokeColor=#82b366;" vertex="1" parent="1">
          <mxGeometry x="1000" y="360" width="120" height="80" as="geometry" />
        </mxCell>
        <mxCell id="yNea2SyTlovEkYiXTrdP-26" value="" style="shape=curlyBracket;whiteSpace=wrap;html=1;rounded=1;labelPosition=left;verticalLabelPosition=middle;align=right;verticalAlign=middle;rotation=90;strokeWidth=3;" vertex="1" parent="1">
          <mxGeometry x="210" y="150" width="20" height="360" as="geometry" />
        </mxCell>
        <mxCell id="yNea2SyTlovEkYiXTrdP-27" value="" style="shape=curlyBracket;whiteSpace=wrap;html=1;rounded=1;labelPosition=left;verticalLabelPosition=middle;align=right;verticalAlign=middle;rotation=90;strokeWidth=3;" vertex="1" parent="1">
          <mxGeometry x="630" y="130" width="20" height="400" as="geometry" />
        </mxCell>
        <mxCell id="yNea2SyTlovEkYiXTrdP-28" value="" style="shape=curlyBracket;whiteSpace=wrap;html=1;rounded=1;labelPosition=left;verticalLabelPosition=middle;align=right;verticalAlign=middle;rotation=90;strokeWidth=3;" vertex="1" parent="1">
          <mxGeometry x="990" y="210" width="20" height="240" as="geometry" />
        </mxCell>
        <mxCell id="yNea2SyTlovEkYiXTrdP-29" value="&lt;font style=&quot;font-size: 20px;&quot;&gt;Faza inicjalizacji&lt;/font&gt;" style="text;html=1;align=center;verticalAlign=middle;resizable=0;points=[];autosize=1;strokeColor=none;fillColor=none;" vertex="1" parent="1">
          <mxGeometry x="135" y="270" width="170" height="40" as="geometry" />
        </mxCell>
        <mxCell id="yNea2SyTlovEkYiXTrdP-30" value="&lt;span style=&quot;font-size: 20px;&quot;&gt;Faza wywołania&lt;/span&gt;" style="text;html=1;align=center;verticalAlign=middle;resizable=0;points=[];autosize=1;strokeColor=none;fillColor=none;" vertex="1" parent="1">
          <mxGeometry x="550" y="270" width="170" height="40" as="geometry" />
        </mxCell>
        <mxCell id="yNea2SyTlovEkYiXTrdP-31" value="&lt;span style=&quot;font-size: 20px;&quot;&gt;Faza wyłączenia&lt;/span&gt;" style="text;html=1;align=center;verticalAlign=middle;resizable=0;points=[];autosize=1;strokeColor=none;fillColor=none;" vertex="1" parent="1">
          <mxGeometry x="915" y="270" width="170" height="40" as="geometry" />
        </mxCell>
        <mxCell id="yNea2SyTlovEkYiXTrdP-35" value="" style="edgeStyle=orthogonalEdgeStyle;rounded=0;orthogonalLoop=1;jettySize=auto;html=1;entryX=0;entryY=0.5;entryDx=0;entryDy=0;" edge="1" parent="1" source="yNea2SyTlovEkYiXTrdP-19" target="yNea2SyTlovEkYiXTrdP-34">
          <mxGeometry relative="1" as="geometry">
            <mxPoint x="560" y="400" as="sourcePoint" />
            <mxPoint x="720" y="400" as="targetPoint" />
          </mxGeometry>
        </mxCell>
        <mxCell id="yNea2SyTlovEkYiXTrdP-34" value="&lt;span style=&quot;font-size: 20px;&quot;&gt;...&lt;/span&gt;" style="rounded=0;whiteSpace=wrap;html=1;fillColor=#fff2cc;strokeColor=#d6b656;" vertex="1" parent="1">
          <mxGeometry x="600" y="360" width="80" height="80" as="geometry" />
        </mxCell>
      </root>
    </mxGraphModel>
  </diagram>
</mxfile>
